<?xml version="1.0" encoding="UTF-8" standalone="no"?>
<!-- Created with Inkscape (http://www.inkscape.org/) -->

<svg
   xmlns:dc="http://purl.org/dc/elements/1.1/"
   xmlns:cc="http://creativecommons.org/ns#"
   xmlns:rdf="http://www.w3.org/1999/02/22-rdf-syntax-ns#"
   xmlns:svg="http://www.w3.org/2000/svg"
   xmlns="http://www.w3.org/2000/svg"
   xmlns:sodipodi="http://sodipodi.sourceforge.net/DTD/sodipodi-0.dtd"
   xmlns:inkscape="http://www.inkscape.org/namespaces/inkscape"
   width="51.376575mm"
   height="46.988098mm"
   viewBox="0 0 51.376576 46.988098"
   version="1.1"
   id="svg8"
   inkscape:version="0.92.5 (2060ec1f9f, 2020-04-08)"
   sodipodi:docname="玄.svg">
  <defs
     id="defs2">
    <marker
       inkscape:isstock="true"
       style="overflow:visible"
       id="marker2826"
       refX="0"
       refY="0"
       orient="auto"
       inkscape:stockid="Arrow1Mend">
      <path
         transform="matrix(-0.4,0,0,-0.4,-4,0)"
         style="fill:#0000ff;fill-opacity:1;fill-rule:evenodd;stroke:#0000ff;stroke-width:1.00000003pt;stroke-opacity:1"
         d="M 0,0 5,-5 -12.5,0 5,5 Z"
         id="path2824"
         inkscape:connector-curvature="0" />
    </marker>
    <marker
       inkscape:stockid="Arrow1Mend"
       orient="auto"
       refY="0"
       refX="0"
       id="marker2606"
       style="overflow:visible"
       inkscape:isstock="true">
      <path
         id="path2604"
         d="M 0,0 5,-5 -12.5,0 5,5 Z"
         style="fill:#ff0000;fill-opacity:1;fill-rule:evenodd;stroke:#ff0000;stroke-width:1.00000003pt;stroke-opacity:1"
         transform="matrix(-0.4,0,0,-0.4,-4,0)"
         inkscape:connector-curvature="0" />
    </marker>
    <marker
       inkscape:stockid="DiamondL"
       orient="auto"
       refY="0"
       refX="0"
       id="DiamondL"
       style="overflow:visible"
       inkscape:isstock="true">
      <path
         id="path900"
         d="M 0,-7.0710768 -7.0710894,0 0,7.0710589 7.0710462,0 Z"
         style="fill:#000000;fill-opacity:1;fill-rule:evenodd;stroke:#000000;stroke-width:1.00000003pt;stroke-opacity:1"
         transform="scale(0.8)"
         inkscape:connector-curvature="0" />
    </marker>
    <marker
       inkscape:isstock="true"
       style="overflow:visible"
       id="marker1307"
       refX="0"
       refY="0"
       orient="auto"
       inkscape:stockid="Arrow1Mend">
      <path
         transform="matrix(-0.4,0,0,-0.4,-4,0)"
         style="fill:#000000;fill-opacity:1;fill-rule:evenodd;stroke:#000000;stroke-width:1.00000003pt;stroke-opacity:1"
         d="M 0,0 5,-5 -12.5,0 5,5 Z"
         id="path1305"
         inkscape:connector-curvature="0" />
    </marker>
    <marker
       inkscape:isstock="true"
       style="overflow:visible"
       id="marker1173"
       refX="0"
       refY="0"
       orient="auto"
       inkscape:stockid="Arrow1Mend">
      <path
         transform="matrix(-0.4,0,0,-0.4,-4,0)"
         style="fill:#000000;fill-opacity:1;fill-rule:evenodd;stroke:#000000;stroke-width:1.00000003pt;stroke-opacity:1"
         d="M 0,0 5,-5 -12.5,0 5,5 Z"
         id="path1171"
         inkscape:connector-curvature="0" />
    </marker>
    <marker
       inkscape:stockid="Arrow1Lend"
       orient="auto"
       refY="0"
       refX="0"
       id="marker1133"
       style="overflow:visible"
       inkscape:isstock="true">
      <path
         id="path1131"
         d="M 0,0 5,-5 -12.5,0 5,5 Z"
         style="fill:#ff0000;fill-opacity:1;fill-rule:evenodd;stroke:#ff0000;stroke-width:1.00000003pt;stroke-opacity:1"
         transform="matrix(-0.8,0,0,-0.8,-10,0)"
         inkscape:connector-curvature="0" />
    </marker>
    <marker
       inkscape:stockid="Arrow1Lend"
       orient="auto"
       refY="0"
       refX="0"
       id="Arrow1Lend"
       style="overflow:visible"
       inkscape:isstock="true">
      <path
         id="path824"
         d="M 0,0 5,-5 -12.5,0 5,5 Z"
         style="fill:#000000;fill-opacity:1;fill-rule:evenodd;stroke:#000000;stroke-width:1.00000003pt;stroke-opacity:1"
         transform="matrix(-0.8,0,0,-0.8,-10,0)"
         inkscape:connector-curvature="0" />
    </marker>
    <marker
       markerWidth="11.227358"
       markerHeight="12.355258"
       refX="10"
       refY="6.177629"
       orient="auto"
       id="marker4825">
      <path
         inkscape:connector-curvature="0"
         id="path4757"
         d="M 0.42024733,0.42806444 10.231357,6.3500844 0.24347733,11.918544"
         style="fill:none;fill-rule:evenodd;stroke:#000000;stroke-width:1px;stroke-linecap:butt;stroke-linejoin:miter;stroke-opacity:1" />
    </marker>
    <marker
       markerWidth="18.960653"
       markerHeight="11.194658"
       refX="9.4803267"
       refY="5.5973287"
       orient="auto"
       id="marker4643">
      <rect
         transform="matrix(-0.86111274,-0.50841405,0.86111274,-0.50841405,0,0)"
         y="-5.1589785"
         x="-16.168369"
         height="10.317957"
         width="10.317957"
         id="rect4212-9"
         style="fill:#000000;stroke:#000000;stroke-width:0.69143367;stroke-miterlimit:4;stroke-dasharray:none" />
    </marker>
    <marker
       inkscape:isstock="true"
       style="overflow:visible"
       id="marker2826-1"
       refX="0"
       refY="0"
       orient="auto"
       inkscape:stockid="Arrow1Mend">
      <path
         inkscape:connector-curvature="0"
         transform="matrix(-0.4,0,0,-0.4,-4,0)"
         style="fill:#000000;fill-opacity:1;fill-rule:evenodd;stroke:#000000;stroke-width:1.00000003pt;stroke-opacity:1"
         d="M 0,0 5,-5 -12.5,0 5,5 Z"
         id="path2824-7" />
    </marker>
    <marker
       inkscape:isstock="true"
       style="overflow:visible"
       id="marker2826-2"
       refX="0"
       refY="0"
       orient="auto"
       inkscape:stockid="Arrow1Mend">
      <path
         inkscape:connector-curvature="0"
         transform="matrix(-0.4,0,0,-0.4,-4,0)"
         style="fill:#0000ff;fill-opacity:1;fill-rule:evenodd;stroke:#0000ff;stroke-width:1.00000003pt;stroke-opacity:1"
         d="M 0,0 5,-5 -12.5,0 5,5 Z"
         id="path2824-5" />
    </marker>
  </defs>
  <sodipodi:namedview
     id="base"
     pagecolor="#ffffff"
     bordercolor="#666666"
     borderopacity="1.0"
     inkscape:pageopacity="0.0"
     inkscape:pageshadow="2"
     inkscape:zoom="3.959798"
     inkscape:cx="69.959841"
     inkscape:cy="136.27049"
     inkscape:document-units="mm"
     inkscape:current-layer="layer1"
     showgrid="false"
     inkscape:window-width="2880"
     inkscape:window-height="1672"
     inkscape:window-x="0"
     inkscape:window-y="54"
     inkscape:window-maximized="1"
     fit-margin-top="5"
     fit-margin-left="5"
     fit-margin-bottom="5"
     fit-margin-right="5" />
  <metadata
     id="metadata5">
    <rdf:RDF>
      <cc:Work
         rdf:about="">
        <dc:format>image/svg+xml</dc:format>
        <dc:type
           rdf:resource="http://purl.org/dc/dcmitype/StillImage" />
        <dc:title></dc:title>
      </cc:Work>
    </rdf:RDF>
  </metadata>
  <g
     inkscape:label="Layer 1"
     inkscape:groupmode="layer"
     id="layer1"
     transform="translate(-93.110861,-240.28296)">
    <text
       xml:space="preserve"
       style="font-style:normal;font-weight:normal;font-size:2.9765625px;line-height:125%;font-family:sans-serif;letter-spacing:0px;word-spacing:0px;fill:#000000;fill-opacity:1;stroke:none;stroke-width:0.26458332px;stroke-linecap:butt;stroke-linejoin:miter;stroke-opacity:1"
       x="106.1394"
       y="282.03293"
       id="text1439-9"><tspan
         sodipodi:role="line"
         id="tspan1437-6"
         x="106.1394"
         y="282.03293"
         style="stroke-width:0.26458332px">概念空间全集</tspan></text>
    <ellipse
       style="opacity:0.97000002;fill:#cccccc;stroke:#000000;stroke-width:0.06615416;stroke-miterlimit:4;stroke-dasharray:none"
       id="path1515"
       cx="114.38631"
       cy="262.3342"
       rx="15.634689"
       ry="14.431977" />
    <path
       style="fill:none;stroke:#000000;stroke-width:0.26458332px;stroke-linecap:butt;stroke-linejoin:miter;stroke-opacity:1"
       d="m 98.216493,245.3626 c 0,0 7.173567,9.51437 12.294397,12.16076 3.65637,1.88958 8.4187,0.42454 12.16076,2.13816 6.2748,2.87345 16.03617,13.0962 16.03617,13.0962"
       id="path1517"
       inkscape:connector-curvature="0"
       sodipodi:nodetypes="cssc" />
    <path
       style="opacity:0.97000002;fill:#e6e6e6;stroke:#000000;stroke-width:0.06615416;stroke-miterlimit:4;stroke-dasharray:none"
       d="m 103.64799,251.76256 a 15.634689,14.431977 0 0 0 -4.958356,10.52855 15.634689,14.431977 0 0 0 15.634706,14.43168 15.634689,14.431977 0 0 0 15.43471,-12.24525 c -0.66216,-0.54482 -1.32642,-1.09322 -1.99626,-1.60093 -0.89876,-0.68124 -1.79493,-1.31617 -2.66237,-1.87069 -0.86743,-0.55453 -1.70645,-1.02833 -2.4908,-1.38752 -0.46776,-0.2142 -0.95145,-0.37879 -1.44694,-0.50642 -0.49549,-0.12763 -1.00282,-0.21816 -1.51774,-0.28474 -1.02982,-0.13315 -2.08992,-0.1698 -3.14761,-0.21187 -1.05769,-0.0421 -2.11299,-0.0898 -3.13211,-0.24495 -0.50956,-0.0776 -1.01013,-0.18195 -1.49758,-0.32608 -0.48745,-0.14412 -0.96147,-0.32811 -1.41852,-0.56431 -0.6401,-0.33079 -1.3121,-0.76866 -1.99833,-1.28209 -0.68623,-0.51342 -1.38675,-1.1022 -2.08307,-1.73426 -0.69632,-0.63206 -1.38894,-1.30749 -2.05931,-1.99419 -0.2298,-0.2354 -0.43652,-0.47017 -0.66042,-0.70693 z"
       id="path1538"
       inkscape:connector-curvature="0" />
    <path
       style="opacity:0.97000002;fill:#1a1a1a;stroke:#000000;stroke-width:0.06615416;stroke-miterlimit:4;stroke-dasharray:none"
       d="m 103.64799,251.76256 c 0.2239,0.23676 0.43062,0.47153 0.66042,0.70693 0.67037,0.6867 1.36299,1.36213 2.05931,1.99419 0.69632,0.63206 1.39684,1.22084 2.08307,1.73426 0.68623,0.51343 1.35823,0.9513 1.99833,1.28209 0.45705,0.2362 0.93107,0.42019 1.41852,0.56431 0.48745,0.14413 0.98802,0.24851 1.49758,0.32608 1.01912,0.15515 2.07442,0.20288 3.13211,0.24495 1.05769,0.0421 2.11779,0.0787 3.14761,0.21187 0.51492,0.0666 1.02225,0.15711 1.51774,0.28474 0.49549,0.12763 0.97918,0.29222 1.44694,0.50642 0.78435,0.35919 1.62337,0.83299 2.4908,1.38752 0.86744,0.55452 1.76361,1.18945 2.66237,1.87069 0.66984,0.50771 1.3341,1.05611 1.99626,1.60093 a 15.634689,14.431977 0 0 0 0.19999,-2.18643 15.634689,14.431977 0 0 0 -15.6347,-14.43219 15.634689,14.431977 0 0 0 -10.67635,3.90364 z"
       id="path1515-3"
       inkscape:connector-curvature="0" />
    <text
       xml:space="preserve"
       style="font-style:normal;font-weight:normal;font-size:2.9765625px;line-height:125%;font-family:sans-serif;letter-spacing:0px;word-spacing:0px;fill:#000000;fill-opacity:1;stroke:none;stroke-width:0.26458332px;stroke-linecap:butt;stroke-linejoin:miter;stroke-opacity:1"
       x="109.94316"
       y="267.98508"
       id="text1439-7"><tspan
         sodipodi:role="line"
         id="tspan1437-5"
         x="109.94316"
         y="267.98508"
         style="stroke-width:0.26458332px">无</tspan></text>
    <text
       xml:space="preserve"
       style="font-style:normal;font-weight:normal;font-size:2.9765625px;line-height:125%;font-family:sans-serif;letter-spacing:0px;word-spacing:0px;fill:#ffffff;fill-opacity:1;stroke:none;stroke-width:0.26458332px;stroke-linecap:butt;stroke-linejoin:miter;stroke-opacity:1"
       x="115.70583"
       y="254.81148"
       id="text1439-7-3"><tspan
         sodipodi:role="line"
         id="tspan1437-5-5"
         x="115.70583"
         y="254.81148"
         style="fill:#ffffff;stroke-width:0.26458332px">有</tspan></text>
    <text
       xml:space="preserve"
       style="font-style:normal;font-weight:normal;font-size:2.9765625px;line-height:125%;font-family:sans-serif;letter-spacing:0px;word-spacing:0px;fill:#000000;fill-opacity:1;stroke:none;stroke-width:0.26458332px;stroke-linecap:butt;stroke-linejoin:miter;stroke-opacity:1"
       x="136.68649"
       y="268.7095"
       id="text1439-7-6"><tspan
         sodipodi:role="line"
         id="tspan1437-5-2"
         x="136.68649"
         y="268.7095"
         style="stroke-width:0.26458332px">玄</tspan></text>
  </g>
</svg>
